<svg width="284" height="110" viewBox="0 0 284 110" fill="none" xmlns="http://www.w3.org/2000/svg">
<path d="M279.765 109.31C280.302 109.44 280.842 109.109 280.972 108.573L283.084 99.8238C283.213 99.2869 282.883 98.7467 282.346 98.6171C281.81 98.4875 281.269 98.8176 281.14 99.3545L279.263 107.131L271.486 105.254C270.949 105.124 270.409 105.455 270.279 105.991C270.15 106.528 270.48 107.069 271.017 107.198L279.765 109.31ZM280.853 107.816C280.512 107.257 280.166 106.696 279.817 106.134L278.118 107.189C278.464 107.747 278.807 108.304 279.147 108.859L280.853 107.816ZM277.682 102.745C276.962 101.62 276.228 100.49 275.481 99.3559L273.811 100.456C274.553 101.583 275.282 102.705 275.997 103.823L277.682 102.745ZM273.264 96.0394C272.513 94.9308 271.749 93.8193 270.973 92.7058L269.332 93.8496C270.103 94.9559 270.862 96.0602 271.609 97.1616L273.264 96.0394ZM268.669 89.4464C267.893 88.3627 267.105 87.2777 266.306 86.1923L264.695 87.3779C265.489 88.4563 266.272 89.5343 267.043 90.6111L268.669 89.4464ZM263.902 82.9696C263.101 81.9097 262.289 80.85 261.467 79.7911L259.887 81.0177C260.704 82.0697 261.51 83.1227 262.307 84.1758L263.902 82.9696ZM258.97 76.618C258.142 75.5802 257.305 74.5439 256.458 73.5098L254.91 74.777C255.752 75.8044 256.584 76.8339 257.406 77.865L258.97 76.618ZM253.89 70.4168C253.03 69.3943 252.161 68.3745 251.282 67.358L249.769 68.666C250.642 69.6756 251.505 70.6886 252.36 71.7044L253.89 70.4168ZM248.64 64.3431C247.75 63.3418 246.852 62.3445 245.945 61.3517L244.469 62.7006C245.369 63.6865 246.261 64.6769 247.145 65.6714L248.64 64.3431ZM243.22 58.4101C242.305 57.4357 241.381 56.4663 240.449 55.5027L239.011 56.893C239.936 57.8497 240.854 58.8121 241.763 59.7796L243.22 58.4101ZM237.632 52.6328C236.689 51.6855 235.737 50.7444 234.778 49.8101L233.383 51.2428C234.335 52.17 235.279 53.104 236.215 54.0442L237.632 52.6328ZM231.878 47.0282C230.904 46.1086 229.923 45.1964 228.934 44.2922L227.584 45.768C228.565 46.665 229.539 47.5699 230.505 48.4823L231.878 47.0282ZM225.947 41.6047C224.944 40.7171 223.933 39.838 222.916 38.968L221.616 40.4881C222.625 41.3506 223.627 42.2223 224.622 43.1025L225.947 41.6047ZM219.835 36.3802C218.802 35.5272 217.761 34.6839 216.713 33.8509L215.469 35.4163C216.507 36.2416 217.538 37.0773 218.563 37.9228L219.835 36.3802ZM213.543 31.3777C212.476 30.5617 211.403 29.7567 210.323 28.9634L209.139 30.5753C210.208 31.3607 211.271 32.1579 212.328 32.9661L213.543 31.3777ZM207.064 26.6192C205.964 25.8446 204.857 25.0824 203.744 24.3333L202.628 25.9925C203.729 26.7336 204.824 27.4878 205.913 28.2545L207.064 26.6192ZM200.384 22.1236C199.254 21.3984 198.118 20.6869 196.976 19.9899L195.934 21.697C197.063 22.386 198.186 23.0894 199.303 23.8066L200.384 22.1236ZM193.51 17.9293C192.349 17.2575 191.181 16.6009 190.008 15.9601L189.05 17.7153C190.208 18.3481 191.361 18.9967 192.509 19.6605L193.51 17.9293ZM186.444 14.0715C185.247 13.457 184.045 12.8594 182.837 12.2793L181.971 14.0821C183.163 14.6544 184.349 15.2442 185.53 15.8507L186.444 14.0715ZM179.187 10.5879C177.955 10.038 176.718 9.50654 175.476 8.99438L174.714 10.8434C175.938 11.3481 177.157 11.8718 178.371 12.4141L179.187 10.5879ZM171.734 7.51633C170.473 7.0401 169.207 6.58408 167.935 6.14899L167.288 8.04123C168.539 8.46944 169.786 8.91839 171.028 9.38737L171.734 7.51633ZM164.099 4.90458C162.813 4.51053 161.522 4.1383 160.226 3.78856L159.705 5.71944C160.978 6.06324 162.248 6.42926 163.513 6.81684L164.099 4.90458ZM156.308 2.80353C154.998 2.4984 153.683 2.2167 152.364 1.95917L151.981 3.92211C153.276 4.17497 154.567 4.45164 155.855 4.75142L156.308 2.80353ZM148.388 1.25876C147.058 1.04996 145.724 0.866162 144.386 0.708089L144.151 2.69427C145.464 2.84932 146.773 3.02965 148.078 3.23456L148.388 1.25876ZM140.368 0.312284C139.028 0.206731 137.684 0.127431 136.338 0.0751008L136.26 2.07359C137.58 2.12488 138.897 2.20262 140.211 2.3061L140.368 0.312284ZM132.287 -0.0002776C130.949 0.00201885 129.607 0.0314073 128.262 0.0885896L128.347 2.08678C129.664 2.03077 130.979 2.00197 132.291 1.99972L132.287 -0.0002776ZM124.223 0.343923C122.886 0.456212 121.547 0.596425 120.205 0.765218L120.454 2.74958C121.769 2.58424 123.081 2.4469 124.39 2.3369L124.223 0.343923ZM116.217 1.35048C114.886 1.57394 113.553 1.82599 112.218 2.10727L112.63 4.06431C113.938 3.78872 115.244 3.54179 116.549 3.32288L116.217 1.35048ZM108.315 3.01206C107.016 3.34089 105.715 3.69781 104.413 4.08343L104.98 6.00111C106.257 5.62306 107.532 5.2732 108.806 4.95093L108.315 3.01206ZM100.548 5.3113C99.2937 5.73707 98.0383 6.18987 96.782 6.6702L97.4963 8.53831C98.7291 8.06698 99.9606 7.62277 101.191 7.20517L100.548 5.3113ZM93.0106 8.1943C91.7875 8.71535 90.5638 9.26288 89.3395 9.83737L90.1891 11.6479C91.3918 11.0836 92.5937 10.5459 93.7945 10.0343L93.0106 8.1943ZM85.739 11.6043C84.5384 12.2195 83.3374 12.861 82.1362 13.5292L83.1084 15.277C84.2899 14.6197 85.4709 13.989 86.651 13.3843L85.739 11.6043ZM78.6772 15.5273C77.5415 16.2078 76.4057 16.9125 75.2699 17.6418L76.3506 19.3247C77.4692 18.6064 78.5874 17.9126 79.7052 17.2429L78.6772 15.5273ZM71.8627 19.9042C70.7768 20.649 69.6911 21.4166 68.6055 22.2075L69.7831 23.824C70.8536 23.0442 71.9239 22.2875 72.994 21.5535L71.8627 19.9042ZM65.408 24.6046C64.3424 25.4262 63.2771 26.2704 62.2121 27.1376L63.475 28.6885C64.5264 27.8323 65.5778 26.9991 66.6292 26.1885L65.408 24.6046ZM59.1246 29.7173C58.1304 30.5691 57.1366 31.4413 56.1433 32.3339L57.4802 33.8215C58.4619 32.9392 59.4438 32.0775 60.4259 31.236L59.1246 29.7173ZM53.1649 35.0737C52.1771 36.0034 51.1898 36.9537 50.2031 37.9249L51.6061 39.3503C52.5823 38.3894 53.5588 37.4495 54.5356 36.5301L53.1649 35.0737ZM47.4366 40.7042C46.515 41.6491 45.594 42.6123 44.6736 43.5941L46.1327 44.962C47.0442 43.9896 47.9561 43.036 48.8683 42.1008L47.4366 40.7042ZM41.9143 46.5958C41.0195 47.5882 40.1254 48.5984 39.2319 49.6266L40.7416 50.9384C41.6272 49.9193 42.5132 48.9183 43.3997 47.9351L41.9143 46.5958ZM36.6768 52.6189C35.8257 53.6329 34.9754 54.6634 34.1257 55.7107L35.6788 56.9707C36.5216 55.932 37.3649 54.91 38.2087 53.9047L36.6768 52.6189ZM31.579 58.9028C30.7549 59.953 29.9316 61.0191 29.109 62.1014L30.7013 63.3116C31.5177 62.2375 32.3348 61.1795 33.1524 60.1375L31.579 58.9028ZM26.7548 65.2458C25.9708 66.3087 25.1875 67.3864 24.405 68.4791L26.031 69.6436C26.8082 68.5584 27.586 67.4883 28.3644 66.433L26.7548 65.2458ZM22.0598 71.8021C21.2848 72.9161 20.5106 74.0451 19.7373 75.189L21.3942 76.3091C22.1626 75.1725 22.9318 74.0509 23.7016 72.9441L22.0598 71.8021ZM17.571 78.4357C16.8497 79.5311 16.1291 80.6397 15.4093 81.7616L17.0926 82.8416C17.8082 81.7264 18.5245 80.6244 19.2414 79.5357L17.571 78.4357ZM13.2522 85.1672C12.534 86.3158 11.8166 87.4777 11.1 88.6532L12.8077 89.6943C13.5204 88.5252 14.2338 87.3697 14.948 86.2276L13.2522 85.1672ZM9.0274 92.0946C8.36404 93.2095 7.70138 94.3361 7.03952 95.4745L8.76855 96.4798C9.42706 95.3471 10.0863 94.2263 10.7462 93.1173L9.0274 92.0946ZM5.05621 98.9252C4.3959 100.087 3.73635 101.261 3.07763 102.447L4.82601 103.418C5.48162 102.238 6.138 101.07 6.7951 99.9133L5.05621 98.9252ZM1.10388 106.041C0.775355 106.646 0.447046 107.254 0.118952 107.865L1.88092 108.811C2.20758 108.203 2.53439 107.598 2.86141 106.995L1.10388 106.041Z" fill="#0D0DA3" fill-opacity="0.5"/>
</svg>
